<?xml version="1.0" encoding="iso-8859-1"?>
<!-- Generator: Adobe Illustrator 27.5.0, SVG Export Plug-In . SVG Version: 6.00 Build 0)  -->
<svg version="1.1" id="Layer_1" xmlns="http://www.w3.org/2000/svg" xmlns:xlink="http://www.w3.org/1999/xlink" x="0px" y="0px"
	 viewBox="0 0 512 512" style="enable-background:new 0 0 512 512;" xml:space="preserve">
<g>
	<g>
		<path style="fill:#FFFFFF;" d="M431.787,389.984H80.213C41.435,389.984,10,358.549,10,319.772v0
			c0-38.777,31.435-70.213,70.213-70.213h351.575c38.777,0,70.213,31.435,70.213,70.213v0
			C502,358.549,470.565,389.984,431.787,389.984z"/>
		<path style="fill:#D2DCFD;" d="M178.406,249.559H80.213C41.435,249.559,10,280.994,10,319.772v0
			c0,38.777,31.435,70.213,70.213,70.213h173.243C210.223,357.587,181.418,306.99,178.406,249.559z"/>
		<path style="fill:#B1D952;" d="M176.319,314.24c-14.454,0-11.731,10.894,2.723,10.894l32.135,20.851H346v-52.425H186.021
			L176.319,314.24z"/>
		<path style="fill:#91B706;" d="M186.021,293.559H80.213C65.759,293.559,54,305.318,54,319.772
			c0,14.454,11.759,26.213,26.213,26.213h130.965C200.24,330.104,191.683,312.457,186.021,293.559z"/>
	</g>
	<g>
		<g>
			<path style="fill:#FD6050;" d="M194.006,119.687c-0.033-0.091-0.068-0.181-0.104-0.271c-1.757-4.377-5.931-7.204-10.635-7.204
				h-0.012c-4.709,0.005-8.882,2.841-10.632,7.227c-0.03,0.074-0.058,0.148-0.086,0.223l-24.275,65.319
				c-1.924,5.177,0.713,10.933,5.89,12.857c1.148,0.427,2.325,0.629,3.482,0.629c4.06,0,7.878-2.491,9.375-6.52l1.932-5.197h28.448
				l1.904,5.169c1.909,5.183,7.656,7.838,12.839,5.928c5.183-1.908,7.837-7.657,5.928-12.839L194.006,119.687z M176.374,166.75
				l6.856-18.449l6.794,18.449H176.374z"/>
			<path style="fill:#FD6050;" d="M390.832,112.016c-0.032,0-0.064,0-0.096,0c-5.523,0.052-9.958,4.571-9.905,10.094l0.324,34.304
				l-26.861-39.862c-2.457-3.646-7.009-5.261-11.214-3.975c-4.206,1.285-7.079,5.166-7.079,9.563v66.324c0,5.523,4.477,10,10,10
				s10-4.477,10-10v-33.589l25.469,37.796c2.834,4.195,7.643,5.996,12.248,4.585c4.689-1.436,7.719-5.766,7.718-11.126
				l-0.606-64.209C400.777,116.431,396.311,112.016,390.832,112.016z"/>
			<path style="fill:#FD6050;" d="M54.577,178.408h-0.059c-4.27,0.024-8.766,0.043-12.581,0.051v-56.247c0-5.523-4.477-10-10-10
				s-10,4.477-10,10v66.196c0,4.855,3.488,9.009,8.27,9.849c0.741,0.13,1.208,0.213,8.418,0.213c3.49,0,8.562-0.02,16.006-0.062
				c5.523-0.032,9.974-4.535,9.943-10.057C64.544,182.848,60.073,178.408,54.577,178.408z"/>
			<path style="fill:#FD6050;" d="M257.613,114.171h-17.768c-2.656,0-5.202,1.056-7.078,2.936c-1.876,1.879-2.927,4.428-2.922,7.084
				l0.127,64.292c0.005,2.655,1.066,5.2,2.95,7.072c1.874,1.863,4.409,2.908,7.05,2.908h0.039
				c0.538-0.002,13.223-0.052,18.301-0.143c20.069-0.359,34.635-18.024,34.635-42.003
				C292.947,131.109,278.748,114.171,257.613,114.171z M257.954,178.324c-1.885,0.034-4.939,0.063-8.001,0.084l-0.087-44.237h7.748
				c14.229,0,15.334,16.951,15.334,22.146C272.947,166.787,268.255,178.14,257.954,178.324z"/>
			<path style="fill:#FD6050;" d="M480.062,145.338h-19.339c-5.523,0-10,4.477-10,10s4.477,10,10,10h7.944
				c-2.226,7.312-7.299,13.126-16.508,13.126c-12.31,0-22.324-10.375-22.324-23.126s10.015-23.126,22.324-23.126
				c4.434,0,8.715,1.341,12.38,3.879c4.541,3.143,10.771,2.012,13.914-2.529c3.144-4.541,2.012-10.77-2.529-13.914
				c-7.025-4.864-15.243-7.436-23.765-7.436c-23.338,0-42.324,19.346-42.324,43.126s18.986,43.126,42.324,43.126
				c22.317,0,37.903-17.734,37.903-43.126C490.062,149.815,485.585,145.338,480.062,145.338z"/>
			<path style="fill:#FD6050;" d="M104.746,112.212c-23.337,0-42.324,19.346-42.324,43.126s18.986,43.126,42.324,43.126
				s42.324-19.346,42.324-43.126S128.083,112.212,104.746,112.212z M104.746,178.464c-12.31,0-22.324-10.375-22.324-23.126
				s10.014-23.126,22.324-23.126s22.324,10.375,22.324,23.126S117.055,178.464,104.746,178.464z"/>
			<path style="fill:#FD6050;" d="M313.307,112.212c-5.523,0-10,4.477-10,10v66.252c0,5.523,4.477,10,10,10s10-4.477,10-10v-66.252
				C323.307,116.689,318.83,112.212,313.307,112.212z"/>
		</g>
		<g>
			<path style="fill:#052A75;" d="M431.787,399.984H80.213C35.983,399.984,0,364.001,0,319.772
				c0-44.229,35.983-80.213,80.213-80.213h351.574c44.229,0,80.213,35.983,80.213,80.212S476.017,399.984,431.787,399.984z
				 M80.213,259.559C47.011,259.559,20,286.57,20,319.771c0,33.202,27.011,60.213,60.213,60.213h351.574
				c33.202,0,60.213-27.011,60.213-60.212c0-33.202-27.011-60.213-60.213-60.213H80.213z"/>
		</g>
	</g>
</g>
<g>
</g>
<g>
</g>
<g>
</g>
<g>
</g>
<g>
</g>
<g>
</g>
<g>
</g>
<g>
</g>
<g>
</g>
<g>
</g>
<g>
</g>
<g>
</g>
<g>
</g>
<g>
</g>
<g>
</g>
</svg>
